<mxfile host="app.diagrams.net" agent="Mozilla/5.0 (X11; Ubuntu; Linux x86_64; rv:137.0) Gecko/20100101 Firefox/137.0" version="26.2.14">
  <diagram id="C5RBs43oDa-KdzZeNtuy" name="Page-1">
    <mxGraphModel dx="1360" dy="795" grid="1" gridSize="10" guides="1" tooltips="1" connect="1" arrows="1" fold="1" page="1" pageScale="1" pageWidth="827" pageHeight="1169" math="0" shadow="0">
      <root>
        <mxCell id="WIyWlLk6GJQsqaUBKTNV-0" />
        <mxCell id="WIyWlLk6GJQsqaUBKTNV-1" parent="WIyWlLk6GJQsqaUBKTNV-0" />
        <mxCell id="GOfJNdNeNU2Qqo1dJbFf-56" style="edgeStyle=orthogonalEdgeStyle;rounded=0;orthogonalLoop=1;jettySize=auto;html=1;" edge="1" parent="WIyWlLk6GJQsqaUBKTNV-1" source="GOfJNdNeNU2Qqo1dJbFf-1" target="GOfJNdNeNU2Qqo1dJbFf-51">
          <mxGeometry relative="1" as="geometry" />
        </mxCell>
        <mxCell id="GOfJNdNeNU2Qqo1dJbFf-1" value="Inicio" style="ellipse;whiteSpace=wrap;html=1;" vertex="1" parent="WIyWlLk6GJQsqaUBKTNV-1">
          <mxGeometry x="340" y="50" width="120" height="80" as="geometry" />
        </mxCell>
        <mxCell id="GOfJNdNeNU2Qqo1dJbFf-8" value="Fin" style="ellipse;whiteSpace=wrap;html=1;" vertex="1" parent="WIyWlLk6GJQsqaUBKTNV-1">
          <mxGeometry x="330" y="680" width="120" height="80" as="geometry" />
        </mxCell>
        <mxCell id="GOfJNdNeNU2Qqo1dJbFf-57" style="edgeStyle=orthogonalEdgeStyle;rounded=0;orthogonalLoop=1;jettySize=auto;html=1;" edge="1" parent="WIyWlLk6GJQsqaUBKTNV-1" source="GOfJNdNeNU2Qqo1dJbFf-51" target="GOfJNdNeNU2Qqo1dJbFf-52">
          <mxGeometry relative="1" as="geometry" />
        </mxCell>
        <mxCell id="GOfJNdNeNU2Qqo1dJbFf-51" value="right_password = &quot;python123&quot;" style="rounded=0;whiteSpace=wrap;html=1;" vertex="1" parent="WIyWlLk6GJQsqaUBKTNV-1">
          <mxGeometry x="340" y="190" width="120" height="60" as="geometry" />
        </mxCell>
        <mxCell id="GOfJNdNeNU2Qqo1dJbFf-58" style="edgeStyle=orthogonalEdgeStyle;rounded=0;orthogonalLoop=1;jettySize=auto;html=1;" edge="1" parent="WIyWlLk6GJQsqaUBKTNV-1" source="GOfJNdNeNU2Qqo1dJbFf-52" target="GOfJNdNeNU2Qqo1dJbFf-53">
          <mxGeometry relative="1" as="geometry" />
        </mxCell>
        <mxCell id="GOfJNdNeNU2Qqo1dJbFf-52" value="password" style="shape=parallelogram;perimeter=parallelogramPerimeter;whiteSpace=wrap;html=1;fixedSize=1;" vertex="1" parent="WIyWlLk6GJQsqaUBKTNV-1">
          <mxGeometry x="330" y="330" width="120" height="60" as="geometry" />
        </mxCell>
        <mxCell id="GOfJNdNeNU2Qqo1dJbFf-59" style="edgeStyle=orthogonalEdgeStyle;rounded=0;orthogonalLoop=1;jettySize=auto;html=1;" edge="1" parent="WIyWlLk6GJQsqaUBKTNV-1" source="GOfJNdNeNU2Qqo1dJbFf-53" target="GOfJNdNeNU2Qqo1dJbFf-55">
          <mxGeometry relative="1" as="geometry" />
        </mxCell>
        <mxCell id="GOfJNdNeNU2Qqo1dJbFf-60" style="edgeStyle=orthogonalEdgeStyle;rounded=0;orthogonalLoop=1;jettySize=auto;html=1;" edge="1" parent="WIyWlLk6GJQsqaUBKTNV-1" source="GOfJNdNeNU2Qqo1dJbFf-53" target="GOfJNdNeNU2Qqo1dJbFf-54">
          <mxGeometry relative="1" as="geometry" />
        </mxCell>
        <mxCell id="GOfJNdNeNU2Qqo1dJbFf-53" value="password == right_password" style="rhombus;whiteSpace=wrap;html=1;" vertex="1" parent="WIyWlLk6GJQsqaUBKTNV-1">
          <mxGeometry x="330" y="450" width="120" height="120" as="geometry" />
        </mxCell>
        <mxCell id="GOfJNdNeNU2Qqo1dJbFf-62" style="edgeStyle=orthogonalEdgeStyle;rounded=0;orthogonalLoop=1;jettySize=auto;html=1;exitX=0.458;exitY=0.913;exitDx=0;exitDy=0;exitPerimeter=0;" edge="1" parent="WIyWlLk6GJQsqaUBKTNV-1" source="GOfJNdNeNU2Qqo1dJbFf-54" target="GOfJNdNeNU2Qqo1dJbFf-8">
          <mxGeometry relative="1" as="geometry">
            <Array as="points">
              <mxPoint x="625" y="710" />
            </Array>
          </mxGeometry>
        </mxCell>
        <mxCell id="GOfJNdNeNU2Qqo1dJbFf-54" value="&quot;Acceso concedido&quot;" style="shape=document;whiteSpace=wrap;html=1;boundedLbl=1;" vertex="1" parent="WIyWlLk6GJQsqaUBKTNV-1">
          <mxGeometry x="570" y="480" width="120" height="80" as="geometry" />
        </mxCell>
        <mxCell id="GOfJNdNeNU2Qqo1dJbFf-61" style="edgeStyle=orthogonalEdgeStyle;rounded=0;orthogonalLoop=1;jettySize=auto;html=1;exitX=0.433;exitY=0.95;exitDx=0;exitDy=0;exitPerimeter=0;" edge="1" parent="WIyWlLk6GJQsqaUBKTNV-1" source="GOfJNdNeNU2Qqo1dJbFf-55" target="GOfJNdNeNU2Qqo1dJbFf-8">
          <mxGeometry relative="1" as="geometry">
            <Array as="points">
              <mxPoint x="142" y="710" />
            </Array>
          </mxGeometry>
        </mxCell>
        <mxCell id="GOfJNdNeNU2Qqo1dJbFf-55" value="&quot;ContraseÃ±a incorrecta&quot;" style="shape=document;whiteSpace=wrap;html=1;boundedLbl=1;" vertex="1" parent="WIyWlLk6GJQsqaUBKTNV-1">
          <mxGeometry x="90" y="480" width="120" height="80" as="geometry" />
        </mxCell>
        <mxCell id="GOfJNdNeNU2Qqo1dJbFf-63" value="Si" style="text;html=1;align=center;verticalAlign=middle;whiteSpace=wrap;rounded=0;" vertex="1" parent="WIyWlLk6GJQsqaUBKTNV-1">
          <mxGeometry x="450" y="470" width="60" height="30" as="geometry" />
        </mxCell>
        <mxCell id="GOfJNdNeNU2Qqo1dJbFf-64" value="No" style="text;html=1;align=center;verticalAlign=middle;whiteSpace=wrap;rounded=0;" vertex="1" parent="WIyWlLk6GJQsqaUBKTNV-1">
          <mxGeometry x="270" y="470" width="60" height="30" as="geometry" />
        </mxCell>
      </root>
    </mxGraphModel>
  </diagram>
</mxfile>
